<?xml version="1.0" standalone="no"?><!DOCTYPE svg PUBLIC "-//W3C//DTD SVG 1.1//EN" "http://www.w3.org/Graphics/SVG/1.1/DTD/svg11.dtd"><svg t="1554086119877" class="icon" style="" viewBox="0 0 1024 1024" version="1.1" xmlns="http://www.w3.org/2000/svg" p-id="1060" xmlns:xlink="http://www.w3.org/1999/xlink" width="200" height="200"><defs><style type="text/css"></style></defs><path d="M461.448162 755.577574l0-318.043566c0-25.368784-20.558222-45.936215-45.936215-45.935192-25.367761 0-45.925982 20.568455-45.925982 45.936215l0 318.043566c0 12.67774 5.136997 24.170492 13.446243 32.478715 8.319479 8.319479 19.800975 13.455453 32.479739 13.455453C440.889941 801.51379 461.448162 780.945335 461.448162 755.577574z" p-id="1061"></path><path d="M861.783966 395.187551c-25.367761 0-45.933145 20.565385-45.933145 45.933145l0 409.05028L238.550583 850.170976 238.550583 441.119673c0-25.367761-20.565385-45.933145-45.934169-45.933145-25.367761 0-45.933145 20.565385-45.933145 45.933145l0 454.147384c0 25.162076 20.233833 45.586245 45.316092 45.916772 3.478218 0.554632 7.067976 0.854461 10.744715 0.854461l647.170562 0c3.702322 0 7.315616-0.302899 10.818393-0.865717 0.350994 0.008186 0.698918 0.025583 1.048889 0.025583 25.368784 0 45.935192-20.564361 45.935192-45.933145L907.717112 441.119673C907.718135 415.751912 887.15275 395.187551 861.783966 395.187551z" p-id="1062"></path><path d="M684.412256 768.138658 684.412256 450.090998c0-25.367761-20.565385-45.933145-45.934169-45.933145-25.367761 0-45.933145 20.565385-45.933145 45.933145l0 318.04766c0 25.368784 20.565385 45.934169 45.933145 45.934169C663.847895 814.071803 684.412256 793.507442 684.412256 768.138658z" p-id="1063"></path><path d="M925.266813 211.892945 809.48688 211.892945 809.48688 91.761913c0-25.367761-20.558222-45.937239-45.937239-45.936215-1.967818 0-3.901867 0.138146-5.805216 0.378623-0.045025 0-0.090051-0.004093-0.135076-0.004093L288.531927 46.200228c-1.89414-0.237407-3.818979-0.37453-5.777587-0.37453-25.367761 0-45.925982 20.568455-45.925982 45.936215l0 120.131031L125.241934 211.892945c-25.367761 0-45.933145 20.565385-45.933145 45.934169s20.565385 45.932122 45.933145 45.932122l800.025902 0c25.368784 0 45.934169-20.564361 45.934169-45.932122C971.199958 232.458329 950.635597 211.892945 925.266813 211.892945zM717.624682 211.892945 328.691579 211.892945l0-73.825402L717.624682 138.067542 717.624682 211.892945z" p-id="1064"></path></svg>